<?xml version="1.0" standalone="no"?>
<!DOCTYPE svg PUBLIC "-//W3C//DTD SVG 20010904//EN"
 "http://www.w3.org/TR/2001/REC-SVG-20010904/DTD/svg10.dtd">
<svg version="1.0" xmlns="http://www.w3.org/2000/svg"
 width="1568.000000pt" height="1795.000000pt" viewBox="0 0 1568.000000 1795.000000"
 preserveAspectRatio="xMidYMid meet">

<g transform="translate(0.000000,1795.000000) scale(0.100000,-0.100000)"
fill="#000000" stroke="none">
<path d="M7755 17912 c-147 -71 -7603 -4186 -7629 -4210 -16 -15 -39 -49 -52
-77 l-24 -50 0 -4570 c0 -4431 1 -4571 19 -4610 10 -22 34 -54 52 -72 30 -28
7437 -4154 7584 -4224 67 -32 152 -38 215 -16 59 22 7633 4197 7664 4226 16
14 39 49 52 76 l24 50 0 4570 c0 4404 -1 4571 -19 4610 -10 22 -32 54 -48 71
-17 16 -1729 974 -3824 2139 l-3794 2110 -80 3 c-72 3 -86 0 -140 -26z m1769
-2469 l1606 -1908 -1620 -3 c-891 -1 -2349 -1 -3239 0 l-1619 3 1627 1907
c894 1049 1629 1907 1633 1907 4 1 729 -857 1612 -1906z m-2715 1378 c-8 -11
-642 -756 -1409 -1655 l-1395 -1635 -1595 0 -1595 -1 145 80 c80 44 1430 788
3000 1654 1570 866 2857 1575 2859 1575 2 1 -3 -8 -10 -18z m5241 -1715 l2835
-1576 -1555 0 -1555 1 -1249 1485 c-688 817 -1302 1547 -1365 1621 l-115 137
85 -46 c46 -26 1360 -756 2919 -1622z m-8273 -2093 c-5 -19 -3213 -7048 -3228
-7073 -5 -9 -9 1502 -9 3538 l0 3552 1621 0 c1539 0 1621 -1 1616 -17z m6163
-3065 c-773 -1696 -1561 -3422 -1750 -3836 -189 -414 -347 -749 -351 -745 -7
8 -3439 7649 -3439 7658 0 3 1563 5 3474 5 l3473 0 -1407 -3082z m5229 -440
l0 -3523 -23 50 c-89 193 -3136 6985 -3136 6989 0 3 711 6 1580 6 l1580 0 -1
-3522z m-1775 -773 l1683 -3750 -3425 -3 c-1884 -1 -3427 0 -3430 2 -2 3 774
1709 1724 3791 l1728 3787 19 -39 c10 -21 775 -1725 1701 -3788z m-7613 7
l1687 -3757 -3401 -3 c-1870 -1 -3402 0 -3405 2 -5 6 3420 7516 3428 7516 3 0
764 -1691 1691 -3758z m1829 -6142 l0 -1891 -42 25 c-24 13 -1535 853 -3358
1866 -1823 1013 -3333 1853 -3355 1866 l-40 24 3398 0 3397 0 0 -1890z m7265
1871 c-25 -16 -6685 -3684 -6752 -3720 l-23 -12 0 1876 0 1875 3403 0 c3322 0
3401 -1 3372 -19z"/>
</g>
</svg>
